<?xml version="1.0" standalone="no"?>
<!DOCTYPE svg PUBLIC "-//W3C//DTD SVG 20010904//EN"
 "http://www.w3.org/TR/2001/REC-SVG-20010904/DTD/svg10.dtd">
<svg version="1.0" xmlns="http://www.w3.org/2000/svg"
 width="300.000000pt" height="300.000000pt" viewBox="0 0 300.000000 300.000000"
 preserveAspectRatio="xMidYMid meet">
<metadata>
Created by potrace 1.11, written by Peter Selinger 2001-2013
</metadata>
<g transform="translate(0.000000,300.000000) scale(0.100000,-0.100000)"
fill="#000000" stroke="none">
<path d="M1355 2993 c-190 -25 -379 -80 -522 -151 -280 -141 -534 -395 -675
-675 -249 -497 -194 -1117 140 -1563 224 -299 552 -505 927 -581 140 -28 436
-25 573 5 341 76 621 240 835 487 170 197 278 416 339 687 20 89 23 130 23
298 -1 163 -5 212 -23 297 -81 372 -249 620 -506 743 -112 53 -181 70 -322 77
-146 7 -282 -12 -427 -61 -245 -84 -464 -284 -636 -585 -100 -175 -160 -321
-327 -795 -46 -132 -86 -241 -88 -243 -2 -3 -10 13 -16 34 -7 21 -107 312
-221 648 -115 335 -209 613 -209 618 0 4 21 7 46 5 l47 -3 175 -518 c96 -285
178 -514 182 -510 4 4 22 51 40 103 190 547 342 832 559 1051 163 164 308 250
513 303 234 61 467 55 653 -15 l50 -19 -35 30 c-91 79 -281 190 -412 240 -199
76 -499 117 -683 93z m15 -933 c30 -30 27 -83 -6 -109 -34 -27 -57 -26 -88 2
-53 47 -25 127 44 127 17 0 39 -9 50 -20z m335 -5 c28 -27 30 -42 14 -78 -11
-25 -47 -47 -75 -47 -25 0 -64 47 -64 76 0 66 79 96 125 49z m740 -266 c33
-12 77 -41 110 -71 l55 -50 0 66 0 66 40 0 40 0 0 -410 0 -410 -40 0 -40 0 0
65 0 64 -46 -45 c-145 -145 -388 -144 -544 2 -170 159 -172 489 -2 645 48 45
127 85 194 99 61 13 168 3 233 -21z m-1085 -399 l0 -410 -40 0 -40 0 0 410 0
410 40 0 40 0 0 -410z m330 -240 l0 -650 -40 0 -40 0 0 650 0 650 40 0 40 0 0
-650z"/>
<path d="M2195 1723 c-96 -35 -166 -109 -201 -215 -23 -69 -15 -214 14 -281
30 -66 102 -140 165 -168 70 -31 181 -32 248 -2 103 46 167 136 190 267 19
112 -7 225 -70 305 -71 89 -235 133 -346 94z"/>
</g>
</svg>
